<?xml version="1.0"?>
<svg xmlns="http://www.w3.org/2000/svg" xmlns:xlink="http://www.w3.org/1999/xlink" version="1.1" x="0px" y="0px" viewBox="0 0 60 60" style="enable-background:new 0 0 60 60;" xml:space="preserve" width="512px" height="512px" class=""><g><g id="_x33_-House">
	<path style="fill:#ECE8EC00" d="M48.876,47.848L52,41.581L43.2,29H16.8L8,41.581l3.124,6.268c1.108,2.224-0.212,5.032-2.674,5.319   C8.302,53.185,8.152,53.194,8,53.194V59h17.6H52v-5.806c-0.152,0-0.302-0.009-0.45-0.026   C49.088,52.881,47.768,50.072,48.876,47.848z" data-original="#ECE8EC" class="" data-old_color="#ECE8EC"/>
	<path style="fill:#D3D3D300" d="M5,41l0.511,11.973C5.344,52.991,5.173,53,5,53v6h20V41H5z" data-original="#D3D3D3" class="" data-old_color="#D3D3D3"/>
	<path style="fill:#ECE8EC00" d="M55,41h-8l-7-8l-7,8h-8v18h30v-6c-0.173,0-0.344-0.009-0.511-0.027L55,41z" data-original="#ECE8EC" class="" data-old_color="#ECE8EC"/>
	<path style="fill:#EBBA1600" d="M5,53L5,53c-0.173,0-0.344-0.009-0.511-0.027c-2.798-0.296-4.298-3.198-3.038-5.496L5,41l3.55,6.477   c1.26,2.298-0.241,5.2-3.038,5.496C5.344,52.991,5.173,53,5,53z" data-original="#EBBA16" class="" data-old_color="#EBBA16"/>
	<polygon style="fill:#00895F00" points="25,41 5,41 15,28  " data-original="#00895F" class="" data-old_color="#00895F"/>
	<rect x="34" y="45" style="fill:#D3D3D300" width="12" height="14" data-original="#D3D3D3" class="" data-old_color="#D3D3D3"/>
	<polygon style="fill:#25AE8800" points="45,28 15,28 25,41 33,41 40,33 47,41 55,41  " data-original="#25AE88" class="" data-old_color="#25AE88"/>
	<path style="fill:#EBBA1600" d="M55,53L55,53c-0.173,0-0.344-0.009-0.511-0.027c-2.798-0.296-4.298-3.198-3.038-5.496L55,41   l3.55,6.477c1.26,2.298-0.241,5.2-3.038,5.496C55.344,52.991,55.173,53,55,53z" data-original="#EBBA16" class="" data-old_color="#EBBA16"/>
	<rect x="38" y="49" style="fill:#705E7600" width="4" height="10" data-original="#705E76" class="" data-old_color="#705E76"/>
	<path style="fill:#D3D3D300" d="M40,14c-0.382,0-0.744,0.078-1.08,0.208C38.553,12.379,36.938,11,35,11s-3.553,1.379-3.92,3.208   C30.744,14.078,30.382,14,30,14c-1.657,0-3,1.343-3,3s1.343,3,3,3h10c1.657,0,3-1.343,3-3S41.657,14,40,14z" data-original="#D3D3D3" class="" data-old_color="#D3D3D3"/>
	<path style="fill:#D3D3D300" d="M14,4c-0.382,0-0.744,0.078-1.08,0.208C12.553,2.379,10.938,1,9,1S5.447,2.379,5.08,4.208   C4.744,4.078,4.382,4,4,4C2.343,4,1,5.343,1,7s1.343,3,3,3h10c1.657,0,3-1.343,3-3S15.657,4,14,4z" data-original="#D3D3D3" class="" data-old_color="#D3D3D3"/>
	<path style="fill:#FFFFFF" d="M5,54c-0.208,0-0.414-0.011-0.615-0.032c-1.658-0.176-3.095-1.138-3.846-2.574   c-0.726-1.388-0.713-3.033,0.035-4.398l3.55-6.477c0.351-0.641,1.403-0.641,1.754,0l3.55,6.477c0.748,1.365,0.761,3.01,0.035,4.398   c-0.751,1.436-2.189,2.398-3.845,2.574C5.414,53.989,5.208,54,5,54z M5,43.081l-2.673,4.876c-0.432,0.789-0.439,1.704-0.017,2.51   c0.447,0.854,1.28,1.405,2.284,1.512c0.265,0.028,0.546,0.028,0.813,0c1.003-0.106,1.836-0.657,2.283-1.512   c0.422-0.806,0.415-1.721-0.017-2.51L5,43.081z" data-original="#4D007E" class="active-path" data-old_color="#4D007E"/>
	<path style="fill:#FFFFFF" d="M5,60c-0.552,0-1-0.448-1-1v-8c0-0.552,0.448-1,1-1s1,0.448,1,1v8C6,59.552,5.552,60,5,60z" data-original="#4D007E" class="active-path" data-old_color="#4D007E"/>
	<path style="fill:#FFFFFF" d="M25,42H5c-0.381,0-0.729-0.216-0.897-0.558c-0.168-0.342-0.128-0.75,0.104-1.052l10-13   c0.379-0.492,1.207-0.492,1.585,0l10,13c0.232,0.302,0.273,0.71,0.104,1.052C25.729,41.784,25.381,42,25,42z M7.031,40h15.938   L15,29.64L7.031,40z" data-original="#4D007E" class="active-path" data-old_color="#4D007E"/>
	<path style="fill:#FFFFFF" d="M40,34h-8c-0.552,0-1-0.448-1-1s0.448-1,1-1h8c0.552,0,1,0.448,1,1S40.552,34,40,34z" data-original="#4D007E" class="active-path" data-old_color="#4D007E"/>
	<path style="fill:#FFFFFF" d="M46,60H34c-0.552,0-1-0.448-1-1V45c0-0.552,0.448-1,1-1h12c0.552,0,1,0.448,1,1v14   C47,59.552,46.552,60,46,60z M35,58h10V46H35V58z" data-original="#4D007E" class="active-path" data-old_color="#4D007E"/>
	<path style="fill:#FFFFFF" d="M17,56h-4c-0.552,0-1-0.448-1-1v-8c0-0.552,0.448-1,1-1h4c0.552,0,1,0.448,1,1v8   C18,55.552,17.552,56,17,56z M14,54h2v-6h-2V54z" data-original="#4D007E" class="active-path" data-old_color="#4D007E"/>
	<path style="fill:#FFFFFF" d="M55,42h-8c-0.288,0-0.563-0.125-0.753-0.341L40,34.519l-6.247,7.14C33.563,41.875,33.288,42,33,42   h-8c-0.311,0-0.603-0.144-0.793-0.39l-10-13c-0.232-0.302-0.273-0.71-0.104-1.052C14.271,27.216,14.619,27,15,27h30   c0.311,0,0.603,0.144,0.793,0.39l10,13c0.232,0.302,0.273,0.71,0.104,1.052C55.729,41.784,55.381,42,55,42z M47.454,40h5.515   l-8.462-11H17.031l8.462,11h7.054l6.701-7.659c0.38-0.434,1.125-0.434,1.505,0L47.454,40z" data-original="#4D007E" class="active-path" data-old_color="#4D007E"/>
	<path style="fill:#FFFFFF" d="M17,52h-4c-0.552,0-1-0.448-1-1v-4c0-0.552,0.448-1,1-1h4c0.552,0,1,0.448,1,1v4   C18,51.552,17.552,52,17,52z M14,50h2v-2h-2V50z" data-original="#4D007E" class="active-path" data-old_color="#4D007E"/>
	<path style="fill:#FFFFFF" d="M21,56h-4c-0.552,0-1-0.448-1-1v-8c0-0.552,0.448-1,1-1h4c0.552,0,1,0.448,1,1v8   C22,55.552,21.552,56,21,56z M18,54h2v-6h-2V54z" data-original="#4D007E" class="active-path" data-old_color="#4D007E"/>
	<path style="fill:#FFFFFF" d="M21,52h-4c-0.552,0-1-0.448-1-1v-4c0-0.552,0.448-1,1-1h4c0.552,0,1,0.448,1,1v4   C22,51.552,21.552,52,21,52z M18,50h2v-2h-2V50z" data-original="#4D007E" class="active-path" data-old_color="#4D007E"/>
	<path style="fill:#FFFFFF" d="M59,60H1c-0.552,0-1-0.448-1-1s0.448-1,1-1h58c0.552,0,1,0.448,1,1S59.552,60,59,60z" data-original="#4D007E" class="active-path" data-old_color="#4D007E"/>
	<path style="fill:#FFFFFF" d="M25,60H5c-0.552,0-1-0.448-1-1v-6c0-0.552,0.448-1,1-1c0.137,0,0.274-0.007,0.407-0.021   c1.004-0.106,1.836-0.657,2.283-1.512c0.422-0.806,0.415-1.721-0.017-2.51l-3.55-6.477c-0.17-0.31-0.164-0.686,0.017-0.99   C4.32,40.187,4.647,40,5,40h20c0.552,0,1,0.448,1,1v18C26,59.552,25.552,60,25,60z M6,58h18V42H6.688l2.738,4.996   c0.748,1.365,0.761,3.01,0.035,4.398C8.77,52.718,7.493,53.639,6,53.912V58z" data-original="#4D007E" class="active-path" data-old_color="#4D007E"/>
	<path style="fill:#FFFFFF" d="M55,54c-0.208,0-0.414-0.011-0.615-0.032c-1.658-0.176-3.095-1.138-3.846-2.574   c-0.726-1.388-0.713-3.033,0.035-4.398l3.55-6.477c0.351-0.641,1.403-0.641,1.754,0l3.55,6.477c0.748,1.365,0.761,3.01,0.035,4.398   c-0.751,1.436-2.189,2.398-3.845,2.574C55.414,53.989,55.208,54,55,54z M55,43.081l-2.673,4.876   c-0.432,0.789-0.439,1.704-0.017,2.51c0.447,0.854,1.28,1.405,2.284,1.512c0.265,0.028,0.546,0.028,0.813,0   c1.003-0.106,1.836-0.657,2.283-1.512c0.422-0.806,0.415-1.721-0.017-2.51L55,43.081z" data-original="#4D007E" class="active-path" data-old_color="#4D007E"/>
	<path style="fill:#FFFFFF" d="M55,60c-0.552,0-1-0.448-1-1v-8c0-0.552,0.448-1,1-1s1,0.448,1,1v8C56,59.552,55.552,60,55,60z" data-original="#4D007E" class="active-path" data-old_color="#4D007E"/>
	<path style="fill:#FFFFFF" d="M55,60H25c-0.552,0-1-0.448-1-1V41c0-0.552,0.448-1,1-1h7.546l6.701-7.659   c0.38-0.434,1.125-0.434,1.505,0L47.454,40H55c0.353,0,0.68,0.187,0.86,0.49c0.18,0.304,0.186,0.681,0.017,0.99l-3.55,6.477   c-0.432,0.789-0.438,1.704-0.017,2.51c0.447,0.854,1.279,1.405,2.284,1.511C54.727,51.993,54.862,52,55,52c0.552,0,1,0.448,1,1v6   C56,59.552,55.552,60,55,60z M26,58h28v-4.088c-1.494-0.273-2.769-1.194-3.462-2.518c-0.726-1.388-0.713-3.032,0.035-4.398l0,0   L53.312,42H47c-0.288,0-0.563-0.125-0.753-0.341L40,34.519l-6.247,7.14C33.563,41.875,33.288,42,33,42h-7V58z" data-original="#4D007E" class="active-path" data-old_color="#4D007E"/>
	<path style="fill:#FFFFFF" d="M42,60h-4c-0.552,0-1-0.448-1-1V49c0-0.552,0.448-1,1-1h4c0.552,0,1,0.448,1,1v10   C43,59.552,42.552,60,42,60z M39,58h2v-8h-2V58z" data-original="#4D007E" class="active-path" data-old_color="#4D007E"/>
	<path style="fill:#FFFFFF" d="M54,11c-0.552,0-1-0.448-1-1c0-1.103-0.897-2-2-2c-0.552,0-1-0.448-1-1s0.448-1,1-1   c1.064,0,2.032,0.418,2.75,1.098C54.774,5.252,56.744,4,59,4c0.552,0,1,0.448,1,1s-0.448,1-1,1c-2.206,0-4,1.794-4,4   C55,10.552,54.552,11,54,11z" data-original="#4D007E" class="active-path" data-old_color="#4D007E"/>
	<path style="fill:#FFFFFF" d="M40,21H30c-2.206,0-4-1.794-4-4c0-2.341,2.066-4.229,4.408-3.978C31.185,11.224,32.979,10,35,10   s3.815,1.224,4.592,3.022C41.939,12.771,44,14.659,44,17C44,19.206,42.206,21,40,21z M30,15c-1.103,0-2,0.897-2,2s0.897,2,2,2h10   c1.103,0,2-0.897,2-2c0-1.338-1.338-2.391-2.719-1.859c-0.275,0.106-0.583,0.085-0.842-0.056c-0.259-0.142-0.441-0.391-0.5-0.68   C37.66,13.012,36.424,12,35,12s-2.66,1.012-2.94,2.405c-0.058,0.289-0.241,0.538-0.5,0.68c-0.259,0.142-0.567,0.162-0.842,0.056   C30.477,15.047,30.235,15,30,15z" data-original="#4D007E" class="active-path" data-old_color="#4D007E"/>
	<path style="fill:#FFFFFF" d="M14,11H4c-2.206,0-4-1.794-4-4c0-2.341,2.065-4.227,4.408-3.978C5.185,1.224,6.979,0,9,0   s3.815,1.224,4.592,3.022C15.938,2.774,18,4.659,18,7C18,9.206,16.206,11,14,11z M4,5C2.897,5,2,5.897,2,7s0.897,2,2,2h10   c1.103,0,2-0.897,2-2c0-1.338-1.339-2.391-2.719-1.859c-0.276,0.105-0.583,0.085-0.842-0.056c-0.259-0.142-0.441-0.391-0.5-0.68   C11.66,3.012,10.424,2,9,2S6.34,3.012,6.06,4.405c-0.058,0.289-0.241,0.538-0.5,0.68C5.302,5.227,4.994,5.247,4.719,5.141   C4.477,5.047,4.235,5,4,5z" data-original="#4D007E" class="active-path" data-old_color="#4D007E"/>
</g></g> </svg>
