<?xml version="1.0"?>
<svg xmlns="http://www.w3.org/2000/svg" height="512px" viewBox="0 0 480.14516 480" width="512px" class=""><g><path d="m168.144531 352.195312h-48c-4.417969 0-8 3.582032-8 8v48c0 4.421876 3.582031 8 8 8h48c4.417969 0 8-3.578124 8-8v-48c0-4.417968-3.582031-8-8-8zm-8 48h-32v-32h32zm0 0" data-original="#000000" class="active-path" data-old_color="#000000" fill="#FC9258"/><path d="m280.144531 264.195312h-80c-8.835937 0-16 7.164063-16 16v32c0 8.839844 7.164063 16 16 16h80c8.835938 0 16-7.160156 16-16v-32c0-8.835937-7.164062-16-16-16zm0 24h-32v-8h32zm-48-8v8h-32v-8zm-32 24h32v8h-32zm48 8v-8h32v8zm0 0" data-original="#000000" class="active-path" data-old_color="#000000" fill="#FC9258"/><path d="m439.449219 424.75c-1.992188-10.523438-8.117188-19.804688-17.007813-25.773438s-19.804687-8.121093-30.296875-5.980468v-141.488282l14.34375 14.34375c9.753907 9.753907 25.5625 9.753907 35.3125 0 9.75-9.75 9.75-25.558593 0-35.3125l-49.65625-49.652343v-100.691407c8.835938 0 16-7.160156 16-16v-16c0-8.835937-7.164062-16-16-16h-80c-8.835937 0-16 7.164063-16 16v16c0 8.839844 7.164063 16 16 16v20.691407l-55.0625-55.089844c-9.367187-9.328125-24.507812-9.328125-33.871093 0l-12.800782 12.800781c-22.820312-41.996094-69.777344-64.882812-116.914062-56.984375-47.140625 7.894531-84.074219 44.835938-91.960938 91.976563-7.886718 47.140625 15.007813 94.089844 57.011719 116.902344l-20.058594 20.046874c-9.75 9.753907-9.75 25.5625 0 35.3125 9.753907 9.753907 25.5625 9.753907 35.3125 0l14.34375-14.34375v167.746094c-8.710937-10.109375-22.800781-13.71875-35.296875-9.042968-12.5 4.675781-20.761718 16.640624-20.703125 29.984374-17.671875 0-32 14.328126-32 32 0 4.421876 3.582031 8 8 8h464c4.417969 0 8-3.578124 8-8-.03125-23.679687-17.296875-43.808593-40.695312-47.445312zm-71.367188-16.226562c0-.109376.0625-.207032.0625-.328126v-48c0-4.417968-3.582031-8-8-8h-48c-4.417969 0-8 3.582032-8 8v48c0 4.421876 3.582031 8 8 8h48c1.457031-.035156 2.875-.480468 4.089844-1.285156-2.660156 5.375-4.058594 11.289063-4.089844 17.285156v.800782c-15.675781 3.246094-27.914062 15.515625-31.121093 31.199218h-32.878907v-120c0-4.417968-3.582031-8-8-8h-96c-4.417969 0-8 3.582032-8 8v120h-48.710937c-2.929688-17.148437-14.894532-31.378906-31.289063-37.214843v-186.785157h272v160.210938c-3.0625 2.304688-5.777343 5.039062-8.0625 8.117188zm-15.9375-40.328126v32h-32v-32zm-40-320h80v16h-80zm16 32h48v84.691407l-48-48zm-93.597656-23.0625c3.113281-3.082031 8.128906-3.082031 11.246094 0l184.71875 184.71875c3.5 3.507813 3.5 9.183594 0 12.6875-3.507813 3.488282-9.175781 3.488282-12.6875 0l-160.742188-160.742187c-9.367187-9.328125-24.507812-9.328125-33.871093 0l-.609376.609375c-1.105468-6.871094-2.847656-13.625-5.207031-20.167969zm-218.402344 55.0625c0-53.019531 42.980469-96 96-96s96 42.980469 96 96c0 53.019532-42.980469 96-96 96-52.996093-.054687-95.941406-43.003906-96-96zm46.34375 142.34375c-3.503906 3.5-9.179687 3.5-12.6875 0-3.488281-3.507812-3.488281-9.175781 0-12.6875l24.410157-24.40625c6.542968 2.359376 13.296874 4.105469 20.167968 5.207032l-3.882812 3.878906zm53.144531-30.519531c59.027344-1.898437 106.433594-49.308593 108.335938-108.335937l10.578125-10.550782c3.113281-3.082031 8.128906-3.082031 11.246094 0l119.039062 119.0625h-249.375zm-97.335937 240.175781c4.207031-7.230468 13.289063-9.976562 20.800781-6.292968 3.070313 1.515625 6.769532.90625 9.191406-1.515625 2.425782-2.417969 3.039063-6.113281 1.527344-9.191407-1.089844-2.171874-1.660156-4.566406-1.671875-7-.023437-7.800781 5.605469-14.472656 13.296875-15.769531 7.695313-1.292969 15.195313 3.167969 17.726563 10.546875 1.09375 3.375 4.332031 5.582032 7.875 5.359375.371093.007813.742187-.039062 1.101562-.136719 14.585938.019532 27.320313 9.882813 30.984375 24zm181.847656 0v-112h80v112zm145.367188 0c3.285156-9.453124 12.128906-15.847656 22.136719-16 .273437 0 1.082031.121094 1.351562.128907 2.539062.101562 4.96875-1.007813 6.558594-2.988281 1.585937-1.980469 2.140625-4.597657 1.492187-7.050782-.566406-1.980468-.871093-4.027344-.90625-6.089844 0-13.253906 10.746094-24 24-24 13.253907 0 24 10.746094 24 24 0 4.421876 3.582031 8 8 8 14.585938.019532 27.320313 9.882813 30.984375 24zm0 0" data-original="#000000" class="active-path" data-old_color="#000000" fill="#FC9258"/><path d="m120.144531 184.195312v-16c13.253907 0 24-10.742187 24-24v-16c0-13.253906-10.746093-24-24-24h-16c-4.417969 0-8-3.578124-8-8v-16c0-4.417968 3.582031-8 8-8h16c4.417969 0 8 3.582032 8 8v8h16v-8c0-13.253906-10.746093-24-24-24v-16h-16v16c-13.253906 0-24 10.746094-24 24v16c0 13.257813 10.746094 24 24 24h16c4.417969 0 8 3.582032 8 8v16c0 4.421876-3.582031 8-8 8h-16c-4.417969 0-8-3.578124-8-8v-8h-16v8c0 13.257813 10.746094 24 24 24v16zm0 0" data-original="#000000" class="active-path" data-old_color="#000000" fill="#FC9258"/><path d="m224.144531 376.195312h-16v16h8v16h-8v16h16c4.417969 0 8-3.578124 8-8v-32c0-4.417968-3.582031-8-8-8zm0 0" data-original="#000000" class="active-path" data-old_color="#000000" fill="#FC9258"/></g> </svg>
