<?xml version="1.0"?>
<svg xmlns="http://www.w3.org/2000/svg" height="512px" viewBox="-1 0 512 512" width="512px" class=""><g><path d="m120 467c0 8.269531-6.730469 15-15 15s-15-6.730469-15-15v-15h30v-62.507812c-34.191406-6.96875-60-37.273438-60-73.492188v-255h-15c-24.8125 0-45 20.1875-45 45v301c0 24.8125 20.1875 45 45 45h15v15c0 24.808594 20.191406 45 45 45s45-20.191406 45-45v-15h-30zm0 0" data-original="#000000" class="active-path" fill="#000000"/><path d="m135 361c24.8125 0 45-20.1875 45-45v-301c0-8.269531-6.730469-15-15-15h-60c-8.269531 0-15 6.730469-15 15v301c0 24.8125 20.1875 45 45 45zm0 0" data-original="#000000" class="active-path" fill="#000000"/><path d="m270 151h150v30h-150zm0 0" data-original="#000000" class="active-path" fill="#000000"/><path d="m465.003906 61h-255.003906v255c0 36.21875-25.808594 66.523438-60 73.492188v62.507812h315c24.8125 0 45-20.1875 45-45v-301c0-24.8125-20.1875-45-44.996094-45zm-195.003906 330h-15c-8.285156 0-15-6.714844-15-15s6.714844-15 15-15h15c8.285156 0 15 6.714844 15 15s-6.714844 15-15 15zm0-60h-15c-8.285156 0-15-6.714844-15-15s6.714844-15 15-15h15c8.285156 0 15 6.714844 15 15s-6.714844 15-15 15zm0-60h-15c-8.285156 0-15-6.714844-15-15s6.714844-15 15-15h15c8.285156 0 15 6.714844 15 15s-6.714844 15-15 15zm82.5 120h-15c-8.285156 0-15-6.714844-15-15s6.714844-15 15-15h15c8.285156 0 15 6.714844 15 15s-6.714844 15-15 15zm0-60h-15c-8.285156 0-15-6.714844-15-15s6.714844-15 15-15h15c8.285156 0 15 6.714844 15 15s-6.714844 15-15 15zm0-60h-15c-8.285156 0-15-6.714844-15-15s6.714844-15 15-15h15c8.285156 0 15 6.714844 15 15s-6.714844 15-15 15zm82.5 120h-15c-8.285156 0-15-6.714844-15-15s6.714844-15 15-15h15c8.285156 0 15 6.714844 15 15s-6.714844 15-15 15zm0-60h-15c-8.285156 0-15-6.714844-15-15s6.714844-15 15-15h15c8.285156 0 15 6.714844 15 15s-6.714844 15-15 15zm0-60h-15c-8.285156 0-15-6.714844-15-15s6.714844-15 15-15h15c8.285156 0 15 6.714844 15 15s-6.714844 15-15 15zm15-75c0 8.285156-6.714844 15-15 15h-180c-8.285156 0-15-6.714844-15-15v-60c0-8.285156 6.714844-15 15-15h180c8.285156 0 15 6.714844 15 15zm0 0" data-original="#000000" class="active-path" fill="#000000"/></g> </svg>
